<svg width="416" height="101" viewBox="0 0 416 101" fill="none" xmlns="http://www.w3.org/2000/svg">
<path d="M120 86.1818V15.8182H154.717C159.265 15.8182 162.93 16.3295 165.713 17.3523C168.563 18.3062 170.701 19.7734 172.127 21.75C173.62 23.6597 174.603 26.0454 175.079 28.9091C175.621 31.7039 175.894 34.9097 175.894 38.5227C175.894 41.1818 175.69 43.8744 175.283 46.6023C174.875 49.2614 173.993 51.7159 172.636 53.9659C171.345 56.1471 169.344 57.8188 166.629 58.9773L177.217 86.1818H158.79L148.914 58.0568L153.394 60.5114C152.783 60.8517 152.139 61.0562 151.459 61.125C150.848 61.1938 150.067 61.2273 149.118 61.2273H137.715V86.1818H120ZM137.715 48.0341H147.896C150.204 48.0341 152.037 47.9318 153.394 47.7273C154.819 47.4539 155.87 46.9779 156.55 46.2955C157.229 45.613 157.67 44.6591 157.873 43.4318C158.077 42.2045 158.179 40.637 158.179 38.7273C158.179 36.7506 158.077 35.1477 157.873 33.9205C157.738 32.6932 157.331 31.7727 156.652 31.1591C156.041 30.4767 155.023 30.0006 153.597 29.7273C152.24 29.4539 150.339 29.3182 147.896 29.3182H137.715V48.0341ZM206.627 87C201.74 87 197.703 86.6932 194.512 86.0796C191.322 85.4659 188.777 84.512 186.876 83.2159C185.043 81.8529 183.653 80.1143 182.702 78C181.821 75.8858 181.243 73.3643 180.971 70.4318C180.768 67.4994 180.666 64.0909 180.666 60.2045C180.666 55.5 180.869 51.4426 181.277 48.0341C181.752 44.6256 182.77 41.8289 184.331 39.6477C185.893 37.4665 188.301 35.8636 191.559 34.8409C194.886 33.7494 199.365 33.2045 204.998 33.2045C209.546 33.2045 213.245 33.5448 216.095 34.2273C218.946 34.8409 221.186 35.8302 222.815 37.1932C224.512 38.4893 225.701 40.1926 226.378 42.3068C227.126 44.4211 227.6 46.9779 227.804 49.9773C228.007 52.9097 228.109 56.3182 228.109 60.2045V64.1932H196.853C196.853 66.512 196.955 68.3864 197.159 69.8182C197.363 71.1812 197.907 72.2039 198.788 72.8864C199.671 73.5688 201.028 74.0448 202.86 74.3182C204.693 74.5227 207.238 74.625 210.496 74.625C211.786 74.625 213.313 74.5915 215.077 74.5227C216.843 74.4539 218.676 74.3517 220.575 74.2159C222.545 74.0802 224.377 73.9426 226.073 73.8068V85.2614C224.581 85.6017 222.748 85.9085 220.575 86.1818C218.472 86.4552 216.197 86.6597 213.754 86.7954C211.31 86.9312 208.935 87 206.627 87ZM212.736 57.3409V55.7045C212.736 53.25 212.601 51.3068 212.329 49.875C212.125 48.4432 211.718 47.387 211.107 46.7045C210.564 45.9552 209.783 45.4773 208.765 45.2727C207.747 45.0682 206.459 44.9659 204.896 44.9659C203.132 44.9659 201.707 45.1016 200.62 45.375C199.602 45.5795 198.823 46.0574 198.279 46.8068C197.736 47.5562 197.363 48.6477 197.159 50.0796C196.955 51.5114 196.853 53.3857 196.853 55.7045H214.467L212.736 57.3409ZM234.893 86.1818V15.8182H259.429C265.675 15.8182 270.766 16.1585 274.701 16.8409C278.638 17.4546 281.726 18.5461 283.966 20.1136C286.205 21.6143 287.801 23.7267 288.751 26.4546C289.769 29.1136 290.415 32.4552 290.685 36.4773C290.957 40.4994 291.092 45.3415 291.092 51C291.092 56.6585 290.957 61.5006 290.685 65.5227C290.415 69.5448 289.769 72.9198 288.751 75.6477C287.801 78.3068 286.205 80.4211 283.966 81.9886C281.726 83.4892 278.638 84.5789 274.701 85.2614C270.766 85.875 265.675 86.1818 259.429 86.1818H234.893ZM252.608 72.4773H259.022C261.806 72.4773 264.079 72.4085 265.843 72.2727C267.609 72.0682 269 71.6591 270.018 71.0455C271.104 70.363 271.85 69.2734 272.257 67.7727C272.733 66.2052 273.005 64.0909 273.072 61.4318C273.209 58.7039 273.276 55.2267 273.276 51C273.276 46.7733 273.209 43.3295 273.072 40.6704C273.005 37.9425 272.733 35.8302 272.257 34.3296C271.784 32.762 271.036 31.637 270.018 30.9545C269 30.2721 267.609 29.863 265.843 29.7273C264.079 29.5915 261.806 29.5227 259.022 29.5227H252.608V72.4773ZM327.311 87C321.406 87 316.552 86.6597 312.752 85.9773C309.018 85.2279 306.099 84.0675 303.996 82.5C301.892 80.8636 300.331 78.6824 299.313 75.9545C298.362 73.1597 297.751 69.7159 297.48 65.625C297.277 61.5341 297.175 56.6585 297.175 51C297.175 45.3415 297.277 40.4659 297.48 36.375C297.751 32.2841 298.362 28.8756 299.313 26.1477C300.331 23.3529 301.892 21.1698 303.996 19.6023C306.099 17.9659 309.018 16.8074 312.752 16.125C316.552 15.3756 321.406 15 327.311 15C333.147 15 337.932 15.3756 341.666 16.125C345.466 16.8074 348.452 17.9659 350.625 19.6023C352.796 21.1698 354.357 23.3529 355.308 26.1477C356.258 28.8756 356.869 32.2841 357.141 36.375C357.411 40.4659 357.548 45.3415 357.548 51C357.548 56.6585 357.411 61.5341 357.141 65.625C356.869 69.7159 356.258 73.1597 355.308 75.9545C354.357 78.6824 352.796 80.8636 350.625 82.5C348.452 84.0675 345.466 85.2279 341.666 85.9773C337.932 86.6597 333.147 87 327.311 87ZM327.311 73.2955C329.754 73.2955 331.722 73.2267 333.216 73.0909C334.776 72.8864 335.998 72.4438 336.881 71.7614C337.762 71.012 338.408 69.8517 338.815 68.2841C339.222 66.7165 339.459 64.5335 339.528 61.7386C339.663 58.9438 339.731 55.3643 339.731 51C339.731 46.6357 339.663 43.0562 339.528 40.2613C339.459 37.4665 339.222 35.2835 338.815 33.7159C338.408 32.1484 337.762 31.0233 336.881 30.3409C335.998 29.5915 334.776 29.1471 333.216 29.0114C331.722 28.8068 329.754 28.7045 327.311 28.7045C324.934 28.7045 322.966 28.8068 321.406 29.0114C319.843 29.1471 318.622 29.5915 317.741 30.3409C316.858 31.0233 316.213 32.1484 315.806 33.7159C315.399 35.2835 315.127 37.4665 314.992 40.2613C314.923 43.0562 314.89 46.6357 314.89 51C314.89 55.3643 314.923 58.9438 314.992 61.7386C315.127 64.5335 315.399 66.7165 315.806 68.2841C316.213 69.8517 316.858 71.012 317.741 71.7614C318.622 72.4438 319.843 72.8864 321.406 73.0909C322.966 73.2267 324.934 73.2955 327.311 73.2955ZM379.043 86.1818V30.1364H359.903V15.8182H416V30.1364H396.758V86.1818H379.043Z" fill="white"/>
<path d="M35.4912 0L33.0204 7.88396C30.3289 9.05951 27.6372 10.2349 24.946 11.4112C22.0904 10.8038 19.2275 10.1004 16.3338 9.74794C15.877 10.2671 4.31891 28.2188 4.32216 28.4043C4.85467 29.7211 5.76927 30.8539 6.46097 32.0862L48.5 46.5622L90.5391 32.0862L92.6778 28.4043C92.6778 28.4043 81.1229 10.2671 80.6661 9.74794C77.7724 10.1004 74.9095 10.8038 72.0539 11.4112C69.3628 10.2349 66.6712 9.05951 63.9797 7.88396L61.5086 0H35.4912ZM9.50189 37.5987L8.1513 50.9793L10.5673 61.2939L29.9463 70.1852L48.5 63.1782L67.0535 70.1852L86.4326 61.2939L88.8487 50.9793C88.8487 50.9793 88.0044 41.7684 87.4981 37.5987L48.5 51.0215L9.50189 37.5987ZM20.7262 47.6205L39.007 53.9889C38.9282 54.653 38.7837 55.3073 38.5754 55.9422C36.7958 61.1508 31.1712 63.9165 26.0128 62.1194C20.8543 60.3225 18.1153 54.6433 19.8951 49.4347C20.1113 48.8034 20.3898 48.1956 20.7262 47.6205ZM76.2738 47.6205C76.6102 48.1956 76.8888 48.8034 77.105 49.4347C78.8848 54.6433 76.1457 60.3225 70.9873 62.1194C65.8289 63.9165 60.2043 61.1508 58.4247 55.9422C58.2164 55.3073 58.0717 54.653 57.9931 53.9889L76.2738 47.6205ZM4.65363 54.555L0 59.2112L6.97159 83.8952L29.0059 93.0213L27.8205 73.8195L6.92441 64.0007L4.65363 54.555ZM92.3462 54.555L90.0757 64.0007L69.1796 73.8195L67.9941 93.0213L90.0284 83.8952L97 59.2112L92.3462 54.555ZM48.5 67.2693L31.9769 73.8724L32.9798 94.6154L48.5 101L64.0202 94.6154L65.0232 73.8724L48.5 67.2693Z" fill="#FE3F02"/>
</svg>
